<?xml version="1.0" encoding="UTF-8"?>
<svg id="Camada_2" data-name="Camada 2" xmlns="http://www.w3.org/2000/svg" viewBox="0 0 695.97 133.17">
  <defs>
    <style>
      .cls-1 {
        fill: #fff;
      }

      .cls-2 {
        fill: none;
      }

      .cls-3 {
        fill: #e30f26;
      }
    </style>
  </defs>
  <g id="Camada_1-2" data-name="Camada 1">
    <g>
      <path class="cls-1" d="M69.83,133.17c-10.08,0-19.35-1.68-27.8-5.04-8.46-3.36-15.84-8.04-22.14-14.04-6.3-6-11.19-13.08-14.67-21.24-3.48-8.16-5.22-16.98-5.22-26.46s1.71-18.42,5.13-26.46c3.42-8.04,8.25-15.05,14.49-21.06,6.24-6,13.59-10.65,22.05-13.95C50.12,1.65,59.39,0,69.47,0s19.35,1.65,27.8,4.95c8.46,3.3,15.81,7.95,22.05,13.95,6.24,6,11.07,13.05,14.49,21.15,3.42,8.1,5.13,16.95,5.13,26.54s-1.71,18.27-5.13,26.36c-3.42,8.1-8.25,15.18-14.49,21.24-6.24,6.06-13.56,10.74-21.96,14.04-8.4,3.3-17.58,4.95-27.54,4.95ZM69.47,101.5c6.72,0,12.54-1.44,17.46-4.32,4.92-2.88,8.7-6.96,11.34-12.24,2.64-5.28,3.96-11.46,3.96-18.54,0-5.28-.75-10.05-2.25-14.31-1.5-4.26-3.69-7.92-6.57-10.98-2.88-3.06-6.33-5.4-10.35-7.02-4.02-1.62-8.55-2.43-13.59-2.43-6.72,0-12.54,1.41-17.46,4.23-4.92,2.82-8.7,6.84-11.34,12.06-2.64,5.22-3.96,11.37-3.96,18.45,0,5.4.75,10.26,2.25,14.58,1.5,4.32,3.69,8.01,6.57,11.07,2.88,3.06,6.33,5.4,10.35,7.02,4.02,1.62,8.55,2.43,13.59,2.43Z"/>
      <path class="cls-1" d="M142.69,130.66V2.52h35.99v128.14h-35.99ZM172.02,130.66v-30.59h59.93v30.59h-59.93Z"/>
      <path class="cls-1" d="M237.63,130.66V2.52h35.99v128.14h-35.99ZM245.74,130.66v-30.59h29.87c6.72,0,12.54-1.23,17.46-3.69,4.92-2.46,8.7-6.21,11.34-11.25,2.64-5.04,3.96-11.28,3.96-18.72s-1.35-13.62-4.05-18.54c-2.7-4.92-6.48-8.61-11.34-11.07-4.86-2.46-10.65-3.69-17.37-3.69h-31.67V2.52h31.67c10.08,0,19.35,1.5,27.8,4.5,8.46,3,15.81,7.32,22.05,12.96,6.24,5.64,11.07,12.39,14.49,20.25,3.42,7.86,5.13,16.65,5.13,26.37s-1.71,18.51-5.13,26.36c-3.42,7.86-8.25,14.61-14.49,20.25-6.24,5.64-13.56,9.96-21.96,12.96-8.4,3-17.58,4.5-27.53,4.5h-30.23Z"/>
      <path class="cls-1" d="M352.52,130.66V2.52h35.99v128.14h-35.99ZM381.85,130.66v-30.59h59.93v30.59h-59.93Z"/>
      <path class="cls-1" d="M454.92,130.66L503.69,2.52h36.71l48.23,128.14h-37.43l-35.81-108.88h12.96l-36.71,108.88h-36.71ZM486.59,109.06v-28.08h71.63v28.08h-71.63Z"/>
      <g>
        <path class="cls-2" d="M656.92,40.31c0,4.08-1.26,7.08-3.78,9-2.52,1.92-5.7,2.88-9.54,2.88h-15.84v-23.76h15.84c3.84,0,7.02.96,9.54,2.88,2.52,1.92,3.78,4.92,3.78,9Z"/>
        <path class="cls-2" d="M660.34,90.88c0,4.32-1.38,7.71-4.14,10.17-2.76,2.46-6.42,3.69-10.98,3.69h-17.46v-27.72h17.46c3.12,0,5.79.54,8.01,1.62,2.22,1.08,3.96,2.67,5.22,4.77,1.26,2.1,1.89,4.59,1.89,7.47Z"/>
        <path class="cls-1" d="M685.17,67.48c-2.13-1.95-4.55-3.64-7.23-5.09,1.78-1.06,3.42-2.23,4.89-3.54,6.48-5.76,9.72-13.2,9.72-22.32,0-6.6-1.62-12.45-4.86-17.55-3.24-5.09-7.77-9.11-13.59-12.05-5.82-2.94-12.62-4.41-20.42-4.41h-61.19v128.13h49.52l48.88-56.39c-1.55-2.44-3.45-4.7-5.72-6.78ZM643.6,28.43c3.84,0,7.02.96,9.54,2.88,2.52,1.92,3.78,4.92,3.78,9s-1.26,7.08-3.78,9c-2.52,1.92-5.7,2.88-9.54,2.88h-15.84v-23.76h15.84ZM656.2,101.05c-2.76,2.46-6.42,3.69-10.98,3.69h-17.46v-27.72h17.46c3.12,0,5.79.54,8.01,1.62,2.22,1.08,3.96,2.67,5.22,4.77,1.26,2.1,1.89,4.59,1.89,7.47,0,4.32-1.38,7.71-4.14,10.17Z"/>
        <path class="cls-3" d="M695.97,92.86c0,7.44-1.86,14.01-5.58,19.7-3.72,5.71-8.91,10.15-15.57,13.32-6.65,3.18-14.42,4.77-23.3,4.77h-9.51l48.88-56.39c3.39,5.33,5.08,11.53,5.08,18.6Z"/>
      </g>
    </g>
  </g>
</svg>