<svg width="234" height="78" viewBox="0 0 234 78" fill="none" xmlns="http://www.w3.org/2000/svg">
<path d="M74.288 43.558C74.0366 60.5063 60.8453 74.892 44.0433 76.9467C13.838 80.6426 -5.74729 45.9425 12.1858 21.647C12.9478 20.6157 16.0636 17.5585 16.3438 16.9198C16.6239 16.2811 16.6842 14.0537 16.9119 13.0485C20.2896 -1.82142 35.8872 -1.18537 47.8688 1.52373C47.4079 2.1781 46.5386 2.26448 45.9102 2.82986C43.449 5.03902 42.6006 10.931 41.1946 14.051C37.3037 22.6914 29.8309 23.9399 21.1877 21.8878L22.5021 19.676L29.1606 12.224C27.0345 13.271 24.877 14.5824 22.9342 15.933C17.8074 19.5007 13.8563 23.5866 11.2825 29.3686C2.24916 49.662 16.1971 73.0964 38.4505 73.8502V65.2334C38.4505 65.1863 37.9085 65.2334 37.5315 64.9848C36.2223 64.1289 37.2697 61.3779 36.7538 60.0063C34.7037 58.8075 31.1453 57.5014 30.6635 54.8577C30.3022 52.8789 31.0327 45.2698 30.4698 44.3459C30.3258 44.1103 29.4251 43.6575 29.0323 43.168C28.1237 42.032 28.074 40.3961 28.2416 38.9879C28.5008 36.8258 30.475 37.3546 32.1691 37.2944V25.9371C32.1691 24.4503 35.5703 24.4503 35.5703 25.9371V37.2944H43.9412V25.9371C43.9412 24.576 47.3425 24.377 47.3425 25.9371V37.2944C49.0365 37.3546 51.0134 36.8232 51.27 38.9879C51.4376 40.3961 51.3878 42.0346 50.4793 43.168C50.0865 43.6575 49.1858 44.1103 49.0418 44.3459C48.4788 45.2725 49.2094 52.8789 48.848 54.8577C48.3662 57.5014 44.8079 58.8075 42.7577 60.0063C42.2419 61.3779 43.2893 64.1289 41.9801 64.9848C41.603 65.2308 41.061 65.1837 41.061 65.2334V73.8502C56.059 73.8136 69.2241 61.4486 70.8815 46.6938H55.0561C53.5846 46.6938 53.5768 43.5606 54.5325 43.5606H74.2827L74.288 43.558ZM41.8518 42.7754H38.1887L36.0966 49.3034H40.0216C40.0006 50.6697 39.4167 52.0518 39.2675 53.3841C39.236 53.6694 39.0344 54.3264 39.4953 54.2635C39.8304 52.4051 43.14 49.3845 43.428 47.8716C43.5275 47.3481 43.3573 47.5209 43.0353 47.4764C42.4933 47.4005 40.1472 47.5863 40.0242 47.4764L41.8544 42.778L41.8518 42.7754Z" fill="#00F700"/>
<path d="M173.951 12.7476V0.738525H181.536V25.5419H174.212L166.365 13.2711V25.5419H158.78V0.738525H165.972L173.951 12.7476Z" fill="#FAFAFA"/>
<path d="M119.282 34.9417L126.867 46.9533V34.9417H134.452V59.7476H127.519L119.541 47.4768V59.3576L119.151 59.7476H111.956V34.9417H119.282Z" fill="#FCFCFC"/>
<path d="M183.369 59.7473H174.998L171.555 51.6959L169.243 51.654V59.7473H161.134V35.2031C169.093 34.6691 184.251 31.3057 182.562 44.189C182.237 46.6572 180.433 48.5968 178.965 50.4291L183.371 59.7473H183.369ZM169.243 45.9086H173.296C176.637 41.739 173.759 39.7916 169.243 40.425V45.9086Z" fill="#FAFAFA"/>
<path d="M110.387 25.542H102.409C100.992 24.1887 99.877 18.7051 98.7512 17.7052C98.1673 17.1869 97.023 17.5377 96.2637 17.4487V25.542H88.4165V0.997748C95.7793 0.707207 111.173 -2.64842 109.793 9.41036C109.473 12.2085 107.871 14.148 106.208 16.2656L110.387 25.542ZM100.707 11.7033C101.39 10.439 102.472 8.32149 101.354 7.01274C101.231 6.86878 100.131 6.22226 100.055 6.22226H96.2611V11.7059H100.707V11.7033Z" fill="#FCFCFC"/>
<path d="M155.117 0.738525V6.74305H144.13V9.87618H154.331V15.6216H144.13V19.5373H155.378V25.5419H136.021V0.738525H155.117Z" fill="#F8F8F8"/>
<path d="M132.622 0.738525V6.35043L132.23 6.74305H121.374V9.87618H131.837V15.229L131.444 15.6216H121.374V19.5373H132.622V25.5419H113.527V0.738525H132.622Z" fill="#FAFAFA"/>
<path d="M108.033 34.9417V40.9488H97.0467V44.0819H107.117L107.51 44.4745V49.4347L107.117 49.8273H97.0467V53.7431H108.295V59.7476H89.1995V34.9417H108.033Z" fill="#FCFCFC"/>
<path d="M157.471 34.9417V40.9488H146.484V44.0819H156.688V49.8273H146.484V53.7431H157.732V59.7476H138.637V34.9417H157.471Z" fill="#FCFCFC"/>
<path d="M83.7061 1.25948V6.48137H74.4188C73.3112 6.48137 72.4289 7.73253 72.2587 8.76383C72.0152 10.2296 71.9837 16.6294 72.3084 17.9879C72.8452 20.2363 75.9113 19.7704 77.6891 19.7992V12.4885H84.489V24.7619C79.632 25.6728 70.5279 27.2852 66.5716 23.7149C62.6153 20.1447 63.0421 8.03616 65.6997 4.04711C69.2476 -1.28472 78.294 0.468999 83.7061 1.2621V1.25948Z" fill="#FBFBFB"/>
<path d="M206.125 40.4253H198.147C197.94 40.4253 196.123 40.8782 195.853 41.0064C195.374 41.2342 195.049 41.6111 194.858 42.1032C194.122 44.0139 194.125 50.4451 194.79 52.3925C195.486 54.4315 198.385 53.963 200.11 54.0023V46.6916H206.91V58.965C201.964 59.732 192.368 61.6846 188.6 57.528C185.144 53.7143 185.45 41.5849 188.487 37.5723C191.525 33.5597 199.485 34.3135 203.865 34.981C204.609 35.0935 205.632 35.1145 206.125 35.5961V40.4253Z" fill="#FBFBFB"/>
<path d="M216.719 34.9417L221.424 45.1263L225.48 34.9417H233.065C232.874 36.0148 232.274 37.2189 231.803 38.2528C230.968 40.0798 225.218 51.2826 225.218 52.0443V59.7476H217.371V52.0443L209 34.9417H216.716H216.719Z" fill="#FBFBFB"/>
<path d="M3.794 8.30854C8.20592 8.77445 12.2696 11.1485 13.4898 15.6035C13.5578 15.8548 13.8511 16.7081 13.3458 16.6609C12.2015 14.2921 9.44702 11.8814 6.8051 11.4443L9.41822 13.4022C10.7431 15.1192 12.2303 16.9541 12.2748 19.2496C11.8611 19.8438 7.25284 19.268 6.42544 18.9984C4.5507 18.3859 3.33578 16.1584 2.57122 14.491L0 8.30854C1.22277 8.40015 2.59217 8.1829 3.794 8.30854Z" fill="#00F600"/>
<path d="M96.049 73.0337L96.0385 67.9034L93.4935 72.1777H93.03L90.485 67.9322V73.031H89.5188V65.99H90.3436L93.2814 70.9397L96.1799 65.99H97.0047L97.0151 73.031H96.049V73.0337Z" fill="#00F700"/>
<path d="M98.5547 69.5108C98.5547 67.4483 100.144 65.9092 102.307 65.9092C104.47 65.9092 106.041 67.4378 106.041 69.5108C106.041 71.5839 104.451 73.1125 102.307 73.1125C100.162 73.1125 98.5547 71.5734 98.5547 69.5108ZM105.035 69.5108C105.035 67.9508 103.867 66.8044 102.309 66.8044C100.751 66.8044 99.5628 67.9508 99.5628 69.5108C99.5628 71.0709 100.731 72.2173 102.309 72.2173C103.888 72.2173 105.035 71.0709 105.035 69.5108Z" fill="#00F700"/>
<path d="M113.639 71.1307C113.639 72.3374 112.723 73.031 110.942 73.031H107.58V65.99H110.741C112.361 65.99 113.267 66.6732 113.267 67.8118C113.267 68.5761 112.875 69.11 112.322 69.3823C113.118 69.6047 113.639 70.1963 113.639 71.1334V71.1307ZM108.588 66.8066V69.0603H110.652C111.678 69.0603 112.262 68.6782 112.262 67.9348C112.262 67.1914 111.678 66.8093 110.652 66.8093H108.588V66.8066ZM112.623 71.0496C112.623 70.2356 112.018 69.8717 110.903 69.8717H108.588V72.2144H110.903C112.021 72.2144 112.623 71.861 112.623 71.047V71.0496Z" fill="#00F700"/>
<path d="M115.2 65.99H116.205V73.031H115.2V65.99Z" fill="#00F700"/>
<path d="M118.321 65.99H119.326V72.1568H123.141V73.031H118.321V65.99Z" fill="#00F700"/>
<path d="M124.298 65.99H125.304V73.031H124.298V65.99Z" fill="#00F700"/>
<path d="M127.42 65.99H130.389C132.654 65.99 134.193 67.4191 134.193 69.5105C134.193 71.6019 132.654 73.031 130.389 73.031H127.42V65.99ZM130.326 72.1568C132.067 72.1568 133.183 71.0915 133.183 69.5105C133.183 67.9295 132.065 66.8642 130.326 66.8642H128.425V72.1568H130.326Z" fill="#00F700"/>
<path d="M140.118 71.2724H136.374L135.599 73.034H134.562L137.751 65.9929H138.746L141.946 73.034H140.888L140.113 71.2724H140.118ZM139.765 70.4688L138.246 67.019L136.728 70.4688H139.768H139.765Z" fill="#00F700"/>
<path d="M142.996 65.99H145.965C148.23 65.99 149.77 67.4191 149.77 69.5105C149.77 71.6019 148.23 73.031 145.965 73.031H142.996V65.99ZM145.905 72.1568C147.646 72.1568 148.762 71.0915 148.762 69.5105C148.762 67.9295 147.644 66.8642 145.905 66.8642H144.004V72.1568H145.905Z" fill="#00F700"/>
<path d="M156.42 72.1568V73.031H151.309V65.99H156.282V66.8642H152.317V69.0263H155.85V69.8822H152.317V72.1568H156.423H156.42Z" fill="#00F700"/>
<path d="M160.115 72.2278L160.487 71.4426C161.01 71.9163 161.906 72.2566 162.812 72.2566C164.029 72.2566 164.553 71.7828 164.553 71.1703C164.553 69.4506 160.288 70.5369 160.288 67.922C160.288 66.8358 161.133 65.9092 162.984 65.9092C163.809 65.9092 164.665 66.1317 165.249 66.5321L164.917 67.3357C164.304 66.9431 163.608 66.7625 162.984 66.7625C161.788 66.7625 161.275 67.265 161.275 67.8801C161.275 69.5998 165.54 68.5241 165.54 71.1101C165.54 72.1859 164.673 73.1125 162.814 73.1125C161.738 73.1125 160.68 72.7513 160.117 72.2278H160.115Z" fill="#00F700"/>
<path d="M166.949 69.9948V65.99H167.954V69.9529C167.954 71.5129 168.669 72.217 169.936 72.217C171.204 72.217 171.929 71.5129 171.929 69.9529V65.99H172.906V69.9948C172.906 72.0364 171.788 73.1122 169.926 73.1122C168.064 73.1122 166.946 72.0364 166.946 69.9948H166.949Z" fill="#00F700"/>
<path d="M174.325 72.2278L174.697 71.4426C175.22 71.9163 176.116 72.2566 177.022 72.2566C178.239 72.2566 178.763 71.7828 178.763 71.1703C178.763 69.4506 174.498 70.5369 174.498 67.922C174.498 66.8358 175.343 65.9092 177.194 65.9092C178.019 65.9092 178.875 66.1317 179.459 66.5321L179.127 67.3357C178.514 66.9431 177.818 66.7625 177.194 66.7625C175.998 66.7625 175.485 67.265 175.485 67.8801C175.485 69.5998 179.75 68.5241 179.75 71.1101C179.75 72.1859 178.883 73.1125 177.022 73.1125C175.945 73.1125 174.888 72.7513 174.325 72.2278Z" fill="#00F700"/>
<path d="M182.518 66.8672H180.104V65.9929H185.929V66.8672H183.515V73.034H182.52V66.8672H182.518Z" fill="#00F700"/>
<path d="M192.137 72.1568V73.031H187.026V65.99H191.996V66.8642H188.032V69.0263H191.564V69.8822H188.032V72.1568H192.137Z" fill="#00F700"/>
<path d="M199.827 65.99V73.031H199.003L194.777 67.7804V73.031H193.771V65.99H194.596L198.822 71.2407V65.99H199.827Z" fill="#00F700"/>
<path d="M203.339 66.8672H200.925V65.9929H206.75V66.8672H204.336V73.034H203.341V66.8672H203.339Z" fill="#00F700"/>
<path d="M211.984 71.2725H208.24L207.465 73.034H206.428L209.617 65.993H210.612L213.812 73.034H212.757L211.982 71.2725H211.984ZM211.631 70.4689L210.112 67.0191L208.594 70.4689H211.634H211.631ZM210.272 65.4171H209.366L210.735 64.1084H211.963L210.272 65.4171Z" fill="#00F700"/>
<path d="M220.609 65.99L217.52 73.031H216.525L213.425 65.99H214.511L217.048 71.7746L219.604 65.99H220.609Z" fill="#00F700"/>
<path d="M226.616 72.1568V73.031H221.505V65.99H226.475V66.8642H222.51V69.0263H226.042V69.8822H222.51V72.1568H226.616Z" fill="#00F700"/>
<path d="M228.247 65.99H229.253V72.1568H233.067V73.031H228.247V65.99Z" fill="#00F700"/>
</svg>
