<svg width="249" height="54" viewBox="0 0 249 54" fill="none" xmlns="http://www.w3.org/2000/svg">
<path d="M19.3943 46.3967H9.94659V16.588L21.5458 4.9889L26.1605 0.374167C26.2852 0.218271 26.1917 0 26.0046 0H13.2517L0 13.2517V53.0382H13.2517L19.519 46.7708C19.6749 46.6461 19.5814 46.3967 19.3943 46.3967Z" fill="#FF5600"/>
<path d="M39.7868 0L33.5195 6.26729C33.3947 6.39202 33.4884 6.61027 33.6754 6.61027H43.1231V36.4812L31.4928 48.0804L26.8781 52.6951C26.7534 52.8198 26.8469 53.0382 27.0339 53.0382H39.7868L53.0386 39.7864V0H39.7868Z" fill="#FF5600"/>
<path d="M39.2873 26.535H31.492V8.79325C31.492 8.60617 31.2738 8.51264 31.1491 8.63736L21.5455 18.2409L13.6256 26.1609C13.5009 26.2856 13.5944 26.5038 13.7814 26.5038H21.5767V44.2456C21.5767 44.4326 21.7949 44.5261 21.9196 44.4014L39.443 26.878C39.5367 26.7533 39.443 26.535 39.2873 26.535Z" fill="#FF5600"/>
<path d="M94.665 8.85571H70.7183V13.1898H90.9233C94.1973 13.1898 95.3821 14.437 95.3821 18.0852V20.7044C95.3821 24.3524 94.2284 25.5996 90.9233 25.5996H70.7183V44.1833H78.5446V29.9338H94.665C100.683 29.9338 103.208 27.0652 103.208 19.3635C103.208 11.6619 100.652 8.85571 94.665 8.85571Z" fill="white"/>
<path d="M138.848 13.1898V8.85571H109.663V44.2145H138.848V39.8804H117.489V27.9383H137.351V23.6041H117.489V13.1898H138.848Z" fill="white"/>
<path d="M171.992 8.85571V33.6131L152.098 8.85571H145.489V44.2145H150.04V19.3947L169.934 44.1833H176.544V8.85571H171.992Z" fill="white"/>
<path d="M194.974 20.2678C191.325 17.8046 190.732 16.9315 190.732 15.6843C190.732 13.9694 191.731 13.221 194.163 13.221H210.626V8.85571H192.698C185.993 8.85571 182.906 11.2878 182.906 16.5261C182.906 20.8602 184.56 22.3258 200.898 32.6777C204.546 35.141 205.138 36.014 205.138 37.3235C205.138 39.1009 204.141 39.8492 201.709 39.8492H183.343V44.1833H203.142C209.815 44.1833 212.934 41.72 212.934 36.4505C212.934 32.0852 211.28 30.5575 194.974 20.2678Z" fill="white"/>
<path d="M248.198 13.1898V8.85571H219.013V44.2145H248.198V39.8804H226.839V27.9383H246.701V23.6041H226.839V13.1898H248.198Z" fill="white"/>
</svg>
