<svg width="242" height="65" viewBox="0 0 242 65" fill="none" xmlns="http://www.w3.org/2000/svg">
<path d="M8.58821 16.8109L0.849853 12.3361C0.454102 12.1099 -0.0335199 12.4139 0.00181507 12.8663C0.418767 18.6207 2.22085 29.4931 9.3797 41.9067C16.5386 54.3131 25.0543 61.3115 29.8316 64.5493C30.2061 64.8038 30.7149 64.5351 30.7149 64.0756V55.133C30.9693 45.7546 29.4099 38.1387 26.0366 32.2854C22.6586 26.4321 16.8449 21.2716 8.59527 16.8039" fill="#EB5F1B"/>
<path d="M63.4283 7.39438C63.824 7.16817 63.8029 6.5885 63.3929 6.39056C58.1987 3.87392 47.881 0 33.5561 0C19.2314 0 8.92064 3.87392 3.7264 6.39764C3.31652 6.59557 3.29532 7.17525 3.69107 7.40146L11.4365 11.8763C19.4316 16.787 26.8071 19.2424 33.5632 19.2424C40.3192 19.2424 47.6948 16.787 55.6899 11.8763L63.4355 7.40146L63.4283 7.39438Z" fill="#EB5F1B"/>
<path d="M66.2687 12.3361L58.5304 16.8109C50.2809 21.2787 44.4671 26.4368 41.0891 32.2854C37.7111 38.1387 36.1516 45.7546 36.4107 55.1331V64.0756C36.4107 64.5281 36.9196 64.8038 37.2941 64.5493C42.0714 61.3115 50.58 54.3131 57.746 41.9067C64.9048 29.5001 66.7069 18.6277 67.1238 12.8663C67.1592 12.4139 66.6715 12.1099 66.2759 12.3361" fill="#EB5F1B"/>
<path d="M104.272 19.2881L97.2827 34.8827L90.2935 19.2881H80.1665L91.9966 40.4675C92.5832 41.5136 92.8941 42.7013 92.8941 43.9031V53.1497H101.834V43.9596C101.834 42.7791 102.131 41.6126 102.696 40.5876L114.321 19.2881H104.286L104.272 19.2881Z" fill="white"/>
<path d="M160.178 19.2881H146.454V53.1566H160.186C171.047 53.1566 175.888 48.8939 175.888 39.3293V33.1225C175.888 23.5791 171.189 19.4436 160.186 19.2952M166.85 39.3293C166.85 44.1717 164.92 46.144 160.186 46.144H155.394V26.3149H160.186C164.857 26.3149 166.85 28.3508 166.85 33.1296V39.3364V39.3293Z" fill="white"/>
<path d="M189.832 39.8736H202.679V32.9034H189.832V26.3078H204.262V19.2881H180.892V53.1566H204.651V46.137H189.832V39.8736Z" fill="white"/>
<path d="M121.508 19.2881L109.317 53.1566H118.617L120.137 48.2365H132.165L133.684 53.1566H142.984L130.794 19.2881H121.515H121.508ZM122.2 41.351L126.151 27.5308L130.023 41.351H122.2Z" fill="white"/>
<path d="M229.59 19.2881H220.304L208.113 53.1566H217.413L218.933 48.2365H230.961L232.48 53.1566H241.78L229.59 19.2881ZM221.003 41.351L224.954 27.5308L228.827 41.351H221.003Z" fill="white"/>
</svg>
