<svg width="242" height="82" viewBox="0 0 242 82" fill="none" xmlns="http://www.w3.org/2000/svg">
<path d="M45.2047 81.7119L38.0562 81.688C17.8881 79.9168 1.60884 64.0515 0.108276 43.7083C-1.52761 21.4745 15.5756 2.31747 37.7059 0.195985C58.069 -1.75833 77.0827 11.082 82.277 30.7207C87.105 48.9662 78.4002 68.1671 61.7109 76.8839C56.3893 79.6621 50.9881 81.2343 45.2047 81.7159V81.7119ZM79.2997 40.938C79.2997 20.3003 62.5149 3.57125 41.8135 3.57125C21.1122 3.57125 4.32736 20.3003 4.32736 40.938C4.32736 61.5757 21.1122 78.3048 41.8135 78.3048C62.5149 78.3048 79.2997 61.5757 79.2997 40.938Z" fill="#E10173"/>
<path d="M241.942 57.679V59.2632L234.518 59.2035L230.16 49.3444L211.903 49.3802L207.624 59.2035L201.128 59.2711C200.822 59.2711 200.137 58.8771 200.173 58.6383L200.296 57.7507L215.429 22.6487L226.789 22.7124L241.938 57.6711L241.942 57.679ZM227.386 42.7212L221.949 30.1037L221.081 29.4908C220.894 29.3594 220.389 29.9087 220.194 30.0958L214.772 42.7092L227.386 42.7212Z" fill="white"/>
<path d="M186.998 34.5139L178.576 53.6311L170.516 53.647L162.022 34.3228L161.819 59.2433L153.811 59.1796L153.826 22.6487L165.19 22.7084L174.528 44.3531L183.909 22.6805L195.245 22.6925L195.257 59.1119L187.229 59.1796L186.998 34.5139Z" fill="white"/>
<path d="M121.387 49.3404L103.114 49.3921L98.8229 59.2154C96.1402 59.299 93.8754 59.3507 91.0176 58.9448L106.565 22.7283C110.382 22.5969 114.032 22.6009 117.98 22.6964L133.551 58.9965C130.621 59.3348 128.321 59.303 125.694 59.1756L121.383 49.3404H121.387ZM118.557 42.6774L113.251 30.2788C113.108 30.0838 112.423 29.2718 112.216 29.4748L111.249 30.4221L105.983 42.7252L118.561 42.6774H118.557Z" fill="white"/>
<path d="M146.077 22.6169H138.005V59.2633H146.077V22.6169Z" fill="white"/>
<path d="M52.7636 58.9328C49.9057 59.2194 47.6728 59.1955 45.0657 59.1199L40.2217 48.0865L35.533 58.8691C34.2473 59.2512 32.8144 59.2791 30.8641 58.885L37.746 42.7371L23.6598 42.7012L16.6625 58.9129C15.1301 59.2552 13.7091 59.295 11.9937 58.8412L28.6153 20.1649C29.28 18.6126 30.88 17.6972 32.3249 17.6733C33.8414 17.6494 35.4414 18.5927 36.0743 20.0535L41.8099 33.2561L47.4459 20.2684C48.1743 18.5927 49.7067 17.6892 51.3386 17.725C53.3327 17.7728 54.4711 18.8992 55.2831 20.7898L71.6499 58.9407C68.8439 59.2154 66.4597 59.2074 63.8645 59.0522L56.8035 42.7012L45.8896 42.7609L52.7675 58.9248L52.7636 58.9328ZM36.2773 38.7488L30.7885 26.1274L25.3435 38.7488H36.2733H36.2773ZM55.1 38.7409L49.655 26.0796L44.194 38.7448H55.096L55.1 38.7409Z" fill="#E10173"/>
</svg>
