<svg width="309" height="77" viewBox="0 0 309 77" fill="none" xmlns="http://www.w3.org/2000/svg">
<path fill-rule="evenodd" clip-rule="evenodd" d="M0.00553113 28.3761C16.7027 28.751 31.9819 28.9481 48.6845 28.9676C53.7803 28.9732 57.9461 32.1948 57.6868 34.936C56.975 42.4488 49.0431 47.284 42.2891 47.3368L27.2473 47.4562L33.6428 35.772C24.3173 35.6054 15.1301 35.5749 5.80207 35.6498C5.57033 35.772 5.57033 35.8887 5.68344 36.0191C12.6194 36.6802 19.1003 37.1745 26.061 37.4383L19.3099 49.0031L32.6937 49.7197L43.826 49.9585C52.238 50.1392 63.0145 44.1152 63.6048 34.4583C63.8891 29.8119 58.3933 25.9929 48.1052 26.0042C32.4122 26.0237 15.6901 25.9959 0 26.2291V28.3761H0.00553113Z" fill="white"/>
<path fill-rule="evenodd" clip-rule="evenodd" d="M58.04 51.1499L67.6357 36.7215L93.2193 36.4827L90.6123 39.9404L71.6608 40.1793L65.147 51.2693L58.04 51.1499Z" fill="white"/>
<path fill-rule="evenodd" clip-rule="evenodd" d="M66.5679 31.1197L99.2587 30.642L101.982 26.7065L68.9379 27.1842L66.5679 31.1197Z" fill="white"/>
<path fill-rule="evenodd" clip-rule="evenodd" d="M55.6453 0.00524366C69.4707 -0.200279 82.2389 5.65154 89.9255 14.7667C88.3115 13.0726 86.5043 11.5589 84.5316 10.2619C77.0631 4.47396 67.1309 1.52444 56.1255 1.68553C38.5123 1.9466 24.4004 11.0896 17.1995 24.0847H16.2725C22.7449 10.4924 36.9647 0.282976 55.6453 0.00524366Z" fill="white"/>
<path fill-rule="evenodd" clip-rule="evenodd" d="M98.9053 44.6564C93.6936 65.8807 72.8083 76.8401 56.0285 76.3707C33.5733 75.743 18.9564 61.2287 5.69142 42.9871C5.57002 42.7399 5.85972 42.3401 6.2846 42.7482C20.0187 57.8321 34.9778 71.8242 56.7403 71.3631C79.245 70.8854 93.2108 61.0148 98.9053 44.6564Z" fill="white"/>
<path d="M119.286 45.4998H130.313C131.282 45.4998 132.121 45.162 132.834 44.4771C133.552 43.7919 133.924 42.9619 133.962 41.9858L134.297 34.2403C134.335 33.2786 134.032 32.4527 133.379 31.7538C132.717 31.069 131.911 30.7217 130.951 30.7217H116.467L115.637 50.0832H111.088L112.114 26.1428H131.147C133.351 26.1428 135.206 26.9403 136.697 28.5306C138.212 30.1165 138.925 32.0166 138.841 34.2403L138.506 41.9858C138.408 44.2098 137.536 46.1145 135.891 47.6954C134.251 49.2858 132.331 50.0832 130.126 50.0832H115.8L119.286 45.5044V45.4998Z" fill="white"/>
<path d="M146.996 50.0788H142.447L143.468 26.1384H148.016L146.996 50.0788Z" fill="white"/>
<path d="M168.877 50.0788H164.328L165.353 26.1384H187.463L187.271 30.7173H169.706L168.877 50.0788ZM172.936 35.8262H185.114L184.918 40.391H169.445L172.936 35.8262Z" fill="white"/>
<path d="M197.683 37.8575H212.2L212.489 31.2188C212.489 31.0876 212.447 30.9704 212.354 30.8673C212.265 30.7687 212.153 30.7217 212.019 30.7217H195.013C194.877 30.7217 194.761 30.7687 194.649 30.8529V30.8718C194.561 30.9609 194.514 31.083 194.509 31.2237L193.708 50.0832H189.159L189.961 31.2237C190.017 29.8302 190.566 28.6338 191.597 27.6395C192.631 26.6449 193.834 26.1428 195.204 26.1428H212.214C213.608 26.1428 214.768 26.6399 215.705 27.6395C216.646 28.6247 217.094 29.8211 217.033 31.2237L216.232 50.0832H211.688L212 42.4173H194.188L197.683 37.8575Z" fill="white"/>
<path d="M219.862 30.5716L220.058 26.1384H248.65L248.458 30.5716H236.425L235.6 50.0788H231.066L231.891 30.5716H219.862Z" fill="white"/>
<path d="M249.768 30.5716L249.964 26.1384H278.556L278.365 30.5716H266.332L265.507 50.0788H260.972L261.801 30.5716H249.768Z" fill="white"/>
<path d="M284.879 50.0647C283.705 49.9615 282.713 49.4735 281.883 48.5869C280.941 47.5968 280.489 46.4054 280.541 45.0213L281.137 31.2237C281.193 29.8302 281.743 28.6338 282.773 27.6395C283.808 26.6449 285.01 26.1428 286.38 26.1428H303.391C304.775 26.1428 305.935 26.6399 306.881 27.6395C307.827 28.6338 308.275 29.8302 308.21 31.2237L307.613 45.0213C307.557 46.4194 307.012 47.6013 305.991 48.5869C304.956 49.5811 303.75 50.0832 302.365 50.0832H285.028L288.515 45.5044H302.552C302.882 45.5044 303.055 45.3451 303.064 45.0213L303.661 31.2237C303.675 30.8904 303.521 30.7262 303.19 30.7262H286.185C285.863 30.7262 285.695 30.8904 285.681 31.2237L284.875 50.0692L284.879 50.0647Z" fill="white"/>
</svg>
