<svg width="217" height="65" viewBox="0 0 217 65" fill="none" xmlns="http://www.w3.org/2000/svg">
<path d="M178.337 39.6416V64.1393H216.96V54.4693H189.018V47.9236H214.764V39.6416H178.337Z" fill="white"/>
<path d="M38.5986 38.5505H29.5232C29.4843 37.9956 29.4656 37.4483 29.4046 36.9038C29.2117 35.1975 28.5216 34.3658 26.8381 34.0821C25.7195 33.9222 24.5901 33.8496 23.4601 33.865C20.7148 33.8373 17.9694 33.8282 15.2247 33.865C11.8717 33.9108 10.0724 35.2925 9.84972 38.6337C9.6255 42.4497 9.63662 46.2758 9.88301 50.0904C10.0308 52.6874 11.6171 53.913 14.2675 53.9456C17.9271 53.9907 21.588 53.9858 25.2476 53.9512C28.6249 53.9186 29.5724 52.9711 29.7458 49.6111C29.7611 49.3101 29.7937 49.0097 29.8263 48.6074H38.8414C38.8594 52.3378 39.2888 56.1403 37.4673 59.6528C35.9316 62.6153 33.1849 63.9429 30.0517 64.0109C23.4796 64.1545 16.8797 64.3209 10.3311 63.8846C4.19454 63.4754 1.20638 60.4859 0.576564 54.298C-0.234007 47.1539 -0.189765 39.9387 0.708354 32.8051C1.48869 27.1264 4.83546 24.0779 10.5739 23.9183C16.9668 23.6806 23.3677 23.7708 29.7514 24.1888C35.3511 24.6092 37.5311 27.1347 38.2456 32.6636C38.4897 34.5496 38.4835 36.4675 38.6021 38.5477" fill="white"/>
<path d="M44.7847 64.0386V23.7761H54.1411V39.4973H73.9588V23.783H83.2971V64.0754H74.0379V48.0796H54.2319V64.0386H44.7847Z" fill="white"/>
<path d="M127.831 54.4174V64.0429H89.3618V39.6431H125.761V47.9458H99.9841V54.4181L127.831 54.4174Z" fill="white"/>
<path d="M145.581 64.0873H134.979V39.6389H169.913V47.9875H145.581V64.0873Z" fill="white"/>
<path d="M127.226 23.7649H89.3308V32.9645H127.226V23.7649Z" fill="white"/>
<path d="M216.213 23.7844H178.341V32.9924H216.213V23.7844Z" fill="white"/>
<path d="M171.11 23.7429H135.008V32.9869H171.11V23.7429Z" fill="white"/>
<path d="M87.5438 0.106566V17.199H83.2065V5.5911L82.9215 5.47874C82.739 5.81862 82.5441 6.15225 82.3763 6.49837C80.801 9.74526 79.1495 12.9595 77.6963 16.2605C77.1165 17.5784 76.1704 17.2413 75.2312 17.3121C74.8166 17.4125 74.3795 17.3566 74.0036 17.1551C73.6276 16.9535 73.3391 16.6205 73.1933 16.2196C71.5348 12.5857 69.7446 9.0114 67.7559 5.44683V17.2316H63.3784V0.112112C65.5523 0.112112 67.7157 0.0732708 69.875 0.155813C70.185 0.167605 70.5741 0.71558 70.7552 1.09708C72.3041 4.35714 73.8127 7.63107 75.4282 11.1041C75.8444 10.2655 76.1863 9.59336 76.5068 8.90944C77.7414 6.27365 78.9886 3.63784 80.183 0.981235C80.2641 0.695261 80.445 0.447817 80.6929 0.283784C80.9408 0.11975 81.2393 0.0499885 81.5342 0.0871441C83.4889 0.146796 85.4456 0.107264 87.5438 0.107264" fill="white"/>
<path d="M143.878 0C145.916 0.113062 147.97 0.110979 149.989 0.370397C152.083 0.639525 153.491 1.93523 153.63 4.04664C153.836 7.16167 153.833 10.287 153.621 13.4016C153.582 14.3857 153.163 15.3163 152.451 15.9968C151.739 16.6773 150.79 17.0545 149.806 17.0488C145.903 17.2145 141.981 17.227 138.079 17.0564C137.008 17.0419 135.986 16.6035 135.237 15.8371C134.488 15.0708 134.073 14.0389 134.084 12.9674C133.932 10.1455 133.929 7.31757 134.077 4.49542C134.198 2.1135 135.619 0.758826 138.008 0.310047C138.346 0.226793 138.69 0.172955 139.038 0.149128C140.648 0.131787 142.259 0.141497 143.87 0.141497C143.87 0.0950238 143.873 0.047859 143.875 0.002773M143.902 12.9328C144.991 12.9328 146.08 12.9529 147.169 12.9272C147.433 12.9519 147.699 12.92 147.949 12.8335C148.2 12.7471 148.429 12.6082 148.621 12.4261C148.813 12.244 148.965 12.0229 149.065 11.7776C149.165 11.5323 149.211 11.2685 149.201 11.0038C149.274 9.57125 149.276 8.13593 149.206 6.70325C149.124 5.25634 148.418 4.54189 146.973 4.48848C144.929 4.41357 142.88 4.4434 140.833 4.47808C140.547 4.45838 140.259 4.49817 139.988 4.59496C139.717 4.69174 139.47 4.84344 139.26 5.04052C139.051 5.2376 138.885 5.47582 138.772 5.74023C138.659 6.00463 138.602 6.28951 138.604 6.57701C138.514 8.09451 138.522 9.61622 138.626 11.1328C138.628 11.387 138.683 11.6381 138.787 11.8699C138.892 12.1017 139.043 12.309 139.233 12.4784C139.423 12.6479 139.645 12.7758 139.887 12.8538C140.129 12.9318 140.385 12.9582 140.638 12.9314C141.726 12.9501 142.816 12.9355 143.905 12.9355" fill="white"/>
<path d="M101.178 0.251458C103.044 0.156674 104.914 0.170569 106.779 0.293074C109.52 0.616306 110.91 2.13883 111.046 4.87104C111.177 7.43422 111.175 10.0025 111.041 12.5655C110.893 15.331 109.386 16.961 106.602 17.1004C102.961 17.2829 99.2962 17.2759 95.6546 17.0956C92.9495 16.9617 91.4235 15.3456 91.2757 12.6439C91.1255 9.99485 91.1285 7.33937 91.2848 4.6907C91.4422 2.0771 92.8295 0.610758 95.4465 0.309723C97.3542 0.187221 99.2673 0.173102 101.177 0.267418V0.25077M101.118 12.9227C102.251 12.9227 103.384 12.9553 104.517 12.9137C104.759 12.9339 105.003 12.9035 105.233 12.8243C105.463 12.7452 105.674 12.6191 105.852 12.454C106.03 12.2889 106.172 12.0885 106.269 11.8655C106.366 11.6425 106.415 11.4019 106.414 11.1588C106.514 9.64345 106.52 8.12329 106.431 6.6072C106.317 5.13601 105.612 4.5166 104.128 4.46943C102.127 4.40631 100.122 4.42851 98.1191 4.46943C97.8329 4.44324 97.5444 4.47753 97.2723 4.57007C97.0003 4.6626 96.7507 4.81131 96.5398 5.00656C96.3289 5.20181 96.1614 5.43922 96.0483 5.70339C95.9351 5.96755 95.8787 6.25256 95.8828 6.53992C95.8045 8.05343 95.8246 9.57664 95.8884 11.0915C95.8825 11.3453 95.9305 11.5975 96.0293 11.8314C96.128 12.0653 96.2753 12.2756 96.4614 12.4483C96.6474 12.6211 96.868 12.7524 97.1086 12.8336C97.3492 12.9147 97.6042 12.9439 97.8569 12.9192C98.9452 12.9511 100.034 12.9262 101.123 12.9192" fill="white"/>
<path d="M165.853 3.26196H210.711C208.717 5.00506 206.949 6.57405 205.144 8.09934C204.845 8.2719 204.5 8.34662 204.157 8.31298C191.661 8.32269 179.164 8.32269 166.667 8.31298C166.393 8.29084 166.121 8.24864 165.853 8.18674V3.26196Z" fill="white"/>
<path d="M6.46484 2.74316H51.2845V7.70332C50.7733 7.7276 50.3134 7.76782 49.8473 7.76852C37.6942 7.76852 25.5404 7.78447 13.3873 7.73731C12.6348 7.69767 11.9133 7.42469 11.323 6.95627C9.72768 5.69525 8.24193 4.30175 6.46762 2.74316" fill="white"/>
<path d="M131.031 0.413086V4.44308H124.819V17.0207H120.38V4.49371H114.165V0.413086H131.031Z" fill="white"/>
<path d="M165.867 14.4171V9.52002H191.38C189.404 11.2479 187.657 12.7919 185.882 14.3019C185.629 14.4629 185.332 14.539 185.033 14.519C178.805 14.5278 172.577 14.5264 166.35 14.5149C166.186 14.496 166.023 14.4633 165.865 14.4171" fill="white"/>
<path d="M25.7476 8.96306H51.2815V13.9177C50.8272 13.9433 50.4082 13.987 49.9893 13.987C44.1975 13.9919 38.4056 14.0141 32.6131 13.9579C31.904 13.9212 31.2238 13.665 30.6668 13.2247C29.0714 11.9512 27.5697 10.5577 25.7476 8.96167" fill="white"/>
</svg>
